<?xml version="1.0" encoding="utf-8"?>
<!DOCTYPE svg PUBLIC "-//W3C//DTD SVG 1.0//EN" "http://www.w3.org/TR/2001/REC-SVG-20010904/DTD/svg10.dtd">
<svg version="1.0" xmlns="http://www.w3.org/2000/svg" width="111px" height="156px" viewBox="-1.50 -1.92 111 156" preserveAspectRatio="xMidYMid meet">
 <g fill="#898787">
  <path d="M10.66 136.84 c0 -0.32 0.18 -0.49 1.58 -1.46 0.86 -0.60 2.56 -1.79 3.75 -2.65 1.21 -0.85 2.94 -2.07 3.85 -2.70 0.93 -0.64 1.85 -1.30 2.06 -1.48 l0.39 -0.31 0.04 -52.22 0.03 -52.22 -1.25 -0.90 c-0.69 -0.50 -2.04 -1.48 -2.99 -2.18 -0.95 -0.71 -1.97 -1.45 -2.25 -1.66 -4.42 -3.21 -4.88 -3.57 -4.92 -3.87 l-0.04 -0.28 20.66 0.03 20.66 0.04 0.04 0.48 c0.03 0.36 -0.03 0.51 -0.26 0.68 -1.66 1.19 -8.88 6.27 -9.64 6.78 -0.86 0.58 -0.99 0.72 -1.04 1.12 -0.04 0.24 -0.08 10.87 -0.08 23.61 l-0.01 23.15 12.98 0 12.98 0 0 -23.33 0 -23.33 -0.35 -0.27 c-1.19 -0.94 -8.38 -6.15 -10.15 -7.37 -0.41 -0.28 -0.68 -0.55 -0.68 -0.69 0 -0.23 0.60 -0.24 20.53 -0.24 11.29 0 20.57 0.04 20.62 0.08 0.09 0.10 -1.95 1.59 -8.65 6.28 l-2.57 1.80 0 52.38 0 52.38 0.42 0.31 c0.22 0.17 2.56 1.82 5.16 3.69 2.62 1.86 5 3.56 5.29 3.78 0.37 0.27 0.54 0.48 0.51 0.66 -0.03 0.26 -0.12 0.26 -19.22 0.26 -14.83 0 -19.21 -0.04 -19.25 -0.15 -0.04 -0.09 1.08 -0.90 2.52 -1.85 1.43 -0.93 2.58 -1.73 2.58 -1.80 0 -0.06 0.09 -0.12 0.19 -0.12 0.10 0 0.19 -0.05 0.19 -0.13 0 -0.06 0.09 -0.13 0.19 -0.13 0.10 0 0.19 -0.05 0.19 -0.13 0 -0.06 0.09 -0.13 0.19 -0.13 0.10 0 0.19 -0.05 0.19 -0.13 0 -0.06 0.09 -0.13 0.19 -0.13 0.10 0 0.19 -0.05 0.19 -0.13 0 -0.06 0.06 -0.13 0.15 -0.13 0.17 0 5.23 -3.34 5.55 -3.67 0.19 -0.18 0.21 -2.79 0.18 -27 l-0.04 -26.81 -8.54 0.03 c-4.70 0 -12.49 0.03 -17.31 0.03 l-8.77 0.01 0 26.90 0 26.90 0.81 0.51 c0.44 0.28 2.43 1.63 4.42 3.01 1.99 1.36 4.38 2.99 5.31 3.61 0.91 0.62 1.67 1.21 1.67 1.31 0 0.17 -2.42 0.19 -19.14 0.19 l-19.14 0 0 -0.37z"/>
  <path d="M46.08 130.57 l-5.61 -3.83 0.03 -24.41 0.04 -24.41 5.69 -0.04 5.68 -0.03 0 28.26 c0 15.55 -0.04 28.26 -0.09 28.26 -0.06 0 -2.63 -1.72 -5.73 -3.82z"/>
  <path d="M55.91 106.16 l0.04 -28.24 5.76 -0.04 5.74 -0.03 -0.03 24.50 -0.04 24.51 -5.59 3.75 c-3.07 2.06 -5.67 3.75 -5.76 3.75 -0.13 0.01 -0.15 -5.67 -0.13 -28.21z"/>
 </g>
</svg>
